# xmcd
#
# Track frame offsets: 
#        183
#        12200
#        24123
#        35798
#        50008
#        62713
#        73700
#        88105
#        101905
#        114798
#        125158
#        138065
#        151340
#        165203
#        179393
#        192820
#        205625
#        218033
#        231900
#        245455
#        256773
#        270915
#        284253
#        297440
#        308803
#        320910
#
# Disc length: 4460 seconds
#
# Revision: 4
# Processed by: cddbd v1.5.2PL0 Copyright (c) Steve Scherf et al.
# Submitted via: ExactAudioCopyFreeDBPlugin 1.0
#
DISCID=70116a1a
DTITLE=Muddy Waters - The Complete Muddy Waters on Chess Records, 1947
DTITLE=1967 [Charly Red Box]
DYEAR=1992
DGENRE=Blues
TTITLE0=Flood
TTITLE1=My Life is Ruined
TTITLE2=She's All Right
TTITLE3=Sad Sad Day
TTITLE4=Turn the Lamp Down Low (Baby Please Don't Go)
TTITLE5=Loving Man
TTITLE6=Blow Wind Blow
TTITLE7=Mad Love (I Want You to Love Me)
TTITLE8=Hoochie Coochie Man
TTITLE9=She's So Pretty
TTITLE10=I Just Want to Make Love to You
TTITLE11=Oh Yeh
TTITLE12=I'm Ready
TTITLE13=Smokestack Lightning
TTITLE14=I Don't Know Why
TTITLE15=I'm a Natural Born Lover
TTITLE16=Ooh Wee
TTITLE17=This Pain
TTITLE18=Young Fashioned Ways
TTITLE19=I Want to Be Loved
TTITLE20=My Eyes (Keep Me in Trouble)
TTITLE21=Mannish Boy
TTITLE22=I Got to Find My Baby
TTITLE23=Sugar Sweet
TTITLE24=Trouble No More
TTITLE25=Clouds in My Heart
EXTD=
EXTT0=
EXTT1=
EXTT2=
EXTT3=
EXTT4=
EXTT5=
EXTT6=
EXTT7=
EXTT8=
EXTT9=
EXTT10=
EXTT11=
EXTT12=
EXTT13=
EXTT14=
EXTT15=
EXTT16=
EXTT17=
EXTT18=
EXTT19=
EXTT20=
EXTT21=
EXTT22=
EXTT23=
EXTT24=
EXTT25=
PLAYORDER=
